<svg width="222" height="29" viewBox="0 0 222 29" fill="none" xmlns="http://www.w3.org/2000/svg">
<path fill-rule="evenodd" clip-rule="evenodd" d="M16 0C16.4245 1.81495e-08 16.8441 0.0229177 17.2568 0.0673828C17.8724 0.133721 18.4736 0.248386 19.0566 0.407227C23.5916 1.64268 27.0265 5.56017 27.5635 10.3574C27.5913 10.606 27.7977 10.7998 28.0479 10.7998H31.5234C31.7773 10.7998 31.9876 10.9982 31.9941 11.252C31.9978 11.3925 32 11.5334 32 11.6748C32 11.9686 31.9921 12.2609 31.9766 12.5508C31.7122 17.4845 29.2272 21.826 25.5068 24.5879C25.3834 24.6795 25.3096 24.8238 25.3096 24.9775V28.418C25.3095 28.6817 25.0948 28.8955 24.8311 28.8955H7.16895C6.90519 28.8955 6.69046 28.6817 6.69043 28.418V24.9775C6.69041 24.8238 6.61659 24.6795 6.49316 24.5879C2.77272 21.8261 0.287833 17.4845 0.0234375 12.5508C0.00791903 12.2609 0 11.9686 0 11.6748C1.32402e-06 11.5334 0.00223382 11.3925 0.00585938 11.252C0.0124111 10.9982 0.222705 10.7998 0.476562 10.7998H3.95215C4.20227 10.7998 4.4087 10.606 4.43652 10.3574C4.97352 5.56017 8.4084 1.64268 12.9434 0.407227C13.5264 0.248386 14.1276 0.133712 14.7432 0.0673828C15.1559 0.0229176 15.5755 0 16 0ZM2.31152 12.5508C2.03643 12.5508 1.81753 12.7828 1.84375 13.0566C2.20337 16.8119 4.01397 20.1416 6.70605 22.4756C7.18258 22.8887 7.68622 23.2716 8.21484 23.6191C8.3517 23.7092 8.43647 23.8606 8.43652 24.0244V26.667C8.4367 26.9306 8.65039 27.1445 8.91406 27.1445H23.0859C23.3496 27.1445 23.5633 26.9306 23.5635 26.667V24.0244C23.5635 23.8606 23.6483 23.7092 23.7852 23.6191C24.3138 23.2716 24.8174 22.8887 25.2939 22.4756C27.986 20.1416 29.7966 16.8119 30.1562 13.0566C30.1825 12.7828 29.9636 12.5508 29.6885 12.5508H28.0479C27.7977 12.5508 27.5913 12.7446 27.5635 12.9932C26.9108 18.8205 21.9824 23.3496 16 23.3496C10.0176 23.3496 5.08914 18.8205 4.43652 12.9932C4.40869 12.7446 4.20227 12.5508 3.95215 12.5508H2.31152ZM14.0654 12.5508C13.8127 12.5508 13.6033 12.7477 13.5889 13C13.4543 15.3549 13.3818 17.4349 13.3818 18.9717C13.3818 20.4225 14.554 21.5986 16 21.5986C17.446 21.5986 18.6182 20.4225 18.6182 18.9717C18.6182 17.4349 18.5457 15.3549 18.4111 13C18.3967 12.7477 18.1873 12.5508 17.9346 12.5508H14.0654ZM6.66797 12.5508C6.38793 12.5509 6.16728 12.791 6.20605 13.0684C6.62975 16.0932 8.41248 18.6806 10.915 20.1885C11.2896 20.4142 11.7358 20.0037 11.6768 19.5703C11.6501 19.3746 11.6367 19.1747 11.6367 18.9717C11.6367 17.434 11.7063 15.3783 11.8369 13.0566C11.8523 12.7824 11.635 12.551 11.3604 12.5508H6.66797ZM20.6396 12.5508C20.365 12.551 20.1477 12.7824 20.1631 13.0566C20.2937 15.3783 20.3633 17.434 20.3633 18.9717C20.3633 19.1747 20.3499 19.3746 20.3232 19.5703C20.2642 20.0037 20.7104 20.4142 21.085 20.1885C23.5875 18.6806 25.3703 16.0932 25.7939 13.0684C25.8327 12.791 25.6121 12.5509 25.332 12.5508H20.6396ZM12.6445 3.0625C12.6813 2.71282 12.3412 2.44587 12.0195 2.58789C8.94469 3.94569 6.68979 6.82817 6.20605 10.2812C6.1672 10.5586 6.38789 10.7997 6.66797 10.7998H11.5312C11.7824 10.7998 11.9911 10.605 12.0088 10.3545C12.1733 8.00628 12.3881 5.50458 12.6445 3.0625ZM16 1.75098C15.6265 1.75098 15.2573 1.77203 14.8945 1.8125C14.6797 1.83666 14.514 2.00969 14.4902 2.22461C14.1936 4.90335 13.9472 7.68954 13.7627 10.2891C13.7431 10.565 13.9626 10.7998 14.2393 10.7998H17.7607C18.0374 10.7998 18.2569 10.565 18.2373 10.2891C18.0528 7.68954 17.8064 4.90335 17.5098 2.22461C17.486 2.00969 17.3203 1.83666 17.1055 1.8125C16.7427 1.77203 16.3736 1.75098 16 1.75098ZM19.9805 2.58789C19.6588 2.44587 19.3187 2.71282 19.3555 3.0625C19.6119 5.50458 19.8267 8.00628 19.9912 10.3545C20.0089 10.605 20.2176 10.7998 20.4688 10.7998H25.332C25.6121 10.7997 25.8328 10.5586 25.7939 10.2812C25.3102 6.82817 23.0553 3.94569 19.9805 2.58789Z" fill="#DC2626"/>
<path d="M73.6631 6.44727C73.9389 6.44744 74.1628 6.67145 74.1631 6.94727V9.5957C74.1631 9.87185 74.3869 10.0957 74.6631 10.0957H78.4951C78.7711 10.0959 78.9951 10.3197 78.9951 10.5957V11.3555C78.9951 11.6315 78.7711 11.8553 78.4951 11.8555H74.6631C74.387 11.8555 74.1632 12.0794 74.1631 12.3555V21.8721C74.1633 23.2478 75.2832 23.8555 76.7871 23.8555C77.2572 23.8554 77.8843 23.7928 78.4375 23.6895C78.7666 23.6283 79.0908 23.8732 79.0908 24.208V24.6074C79.0908 24.777 79.0057 24.9366 78.8584 25.0205C77.7792 25.6346 76.2777 25.9678 75.0264 25.9678C72.7227 25.9676 71.3468 24.6238 71.3467 22.96V12.3555C71.3465 12.0794 71.1227 11.8555 70.8467 11.8555H69.5107C69.2346 11.8555 69.0107 11.6316 69.0107 11.3555V11.1846C69.0107 11.006 69.1068 10.8423 69.2578 10.7471C70.566 9.92186 72.0289 8.45734 72.873 6.74219C72.9604 6.56492 73.1383 6.44738 73.3359 6.44727H73.6631Z" fill="#DC2626"/>
<path fill-rule="evenodd" clip-rule="evenodd" d="M86.6953 9.77539C90.5973 9.77539 92.3554 13.0924 92.5361 15.9961C92.5533 16.2717 92.3279 16.4961 92.0518 16.4961H82.6953C82.4834 16.4963 82.3115 16.668 82.3115 16.8799C82.3116 20.5598 84.52 23.376 87.752 23.376C89.1211 23.3759 90.49 22.9774 91.666 21.8438C91.863 21.654 92.1738 21.6319 92.3809 21.8105L92.4189 21.8428C92.5912 21.9915 92.6433 22.2393 92.5332 22.4385C91.4076 24.4736 89.4317 25.9676 86.8242 25.9678C82.8563 25.9678 79.8478 22.7679 79.8477 18.1602C79.8477 13.4563 82.8235 9.77567 86.6953 9.77539ZM86.1836 11.2793C84.6907 11.2794 83.2781 12.4045 82.6562 14.458C82.5642 14.762 82.8025 15.0557 83.1201 15.0557H88.9395C89.2187 15.0556 89.446 14.8263 89.4141 14.5488C89.2145 12.8219 88.1378 11.2793 86.1836 11.2793Z" fill="#DC2626"/>
<path fill-rule="evenodd" clip-rule="evenodd" d="M130.253 9.77539C134.155 9.77539 135.913 13.0924 136.094 15.9961C136.111 16.2717 135.885 16.496 135.609 16.4961H126.253C126.041 16.4963 125.869 16.6679 125.869 16.8799C125.869 20.5598 128.078 23.376 131.31 23.376C132.679 23.3759 134.048 22.9774 135.224 21.8438C135.421 21.654 135.731 21.6318 135.938 21.8105L135.977 21.8428C136.149 21.9916 136.2 22.2393 136.09 22.4385C134.964 24.4736 132.988 25.9678 130.381 25.9678C126.413 25.9676 123.405 22.7678 123.405 18.1602C123.405 13.4563 126.381 9.7756 130.253 9.77539ZM129.741 11.2793C128.248 11.2793 126.836 12.4045 126.214 14.458C126.122 14.762 126.36 15.0557 126.678 15.0557H132.497C132.776 15.0555 133.004 14.8262 132.972 14.5488C132.772 12.8219 131.695 11.2793 129.741 11.2793Z" fill="#DC2626"/>
<path d="M141.112 6.44727C141.388 6.44727 141.612 6.67134 141.612 6.94727V9.5957C141.612 9.8717 141.836 10.0955 142.112 10.0957H145.944C146.22 10.0957 146.444 10.3196 146.444 10.5957V11.3555C146.444 11.6316 146.22 11.8555 145.944 11.8555H142.112C141.836 11.8557 141.612 12.0796 141.612 12.3555V21.8721C141.612 23.2477 142.733 23.8554 144.236 23.8555C144.706 23.8555 145.333 23.7928 145.887 23.6895C146.216 23.6279 146.541 23.8731 146.541 24.208V24.6074C146.541 24.7769 146.456 24.9366 146.309 25.0205C145.229 25.6346 143.728 25.9678 142.477 25.9678C140.173 25.9677 138.797 24.6238 138.797 22.96V12.3555C138.797 12.0795 138.573 11.8555 138.297 11.8555H136.961C136.685 11.8555 136.461 11.6316 136.461 11.3555V11.1846C136.461 11.0062 136.556 10.8424 136.707 10.7471C138.015 9.92186 139.479 8.45736 140.323 6.74219C140.411 6.56491 140.588 6.4473 140.786 6.44727H141.112Z" fill="#DC2626"/>
<path d="M163.394 2.92773C166.194 2.92773 168.218 3.75968 169.388 4.72656C169.541 4.85367 169.59 5.06545 169.521 5.25293L167.93 9.63867C167.858 9.8363 167.669 9.96777 167.459 9.96777H167.118C166.81 9.96768 166.576 9.69007 166.611 9.38379C166.99 6.07757 165.647 4.55957 162.529 4.55957C156.705 4.55994 151.746 11.5363 151.746 18.1602C151.746 21.8077 153.314 24.3034 156.321 24.3037C158.975 24.3037 161.722 22.4448 163.696 19.0547C163.787 18.8985 163.954 18.8 164.135 18.7998H164.661C165.026 18.7999 165.268 19.1776 165.115 19.5088L163.076 23.9355C163.033 24.0294 162.961 24.1075 162.871 24.1582C160.64 25.4144 158.295 25.9678 156.226 25.9678C151.362 25.9677 148.386 22.7034 148.386 18.0635C148.386 10.2556 155.49 2.92786 163.394 2.92773Z" fill="#DC2626"/>
<path fill-rule="evenodd" clip-rule="evenodd" d="M176.622 9.77539C178.862 9.77539 180.174 11.5362 180.174 14.1602C180.174 18.3203 175.694 25.9678 170.126 25.9678C167.886 25.9676 166.574 24.2077 166.574 21.584C166.574 17.424 171.022 9.77555 176.622 9.77539ZM175.599 11.0557C172.719 11.0557 169.422 17.7121 169.422 21.8721C169.422 23.6639 169.87 24.6875 171.15 24.6875C173.998 24.6873 177.326 18.032 177.326 13.8721C177.326 12.0802 176.878 11.0559 175.599 11.0557Z" fill="#DC2626"/>
<path d="M185.971 9.77539C187.635 9.77539 188.403 11.3119 187.155 14.1279L183.443 22.4473C183.027 23.3753 182.931 24.208 183.859 24.208C185.492 24.2074 189.203 20.3358 190.963 17.3281L193.874 10.4023C193.952 10.2169 194.134 10.0958 194.335 10.0957H196.159C196.435 10.0958 196.659 10.3196 196.659 10.5957V10.6367C196.659 10.7018 196.646 10.7669 196.621 10.8271L191.514 23.2744C191.35 23.6734 191.726 24.0551 192.104 23.8477C193.075 23.3151 194.128 22.465 195.261 21.1807C195.357 21.0717 195.494 21.0079 195.64 21.0078H195.951C196.362 21.0079 196.595 21.4749 196.337 21.7949C194.197 24.4466 192.038 25.9678 190.227 25.9678C188.755 25.9675 188.307 24.7196 189.139 22.96L190.647 19.7666C190.705 19.6446 190.615 19.5039 190.48 19.5039C190.422 19.504 190.367 19.5326 190.332 19.5801C187.789 23.0663 185.12 25.9676 182.451 25.9678C180.339 25.9678 179.987 23.9836 180.947 21.8076L184.798 13.0693C184.943 12.7389 184.701 12.3682 184.34 12.3682H181.971C181.83 12.3682 181.715 12.2534 181.715 12.1123C181.715 12.0502 181.737 11.9903 181.779 11.9443C182.724 10.9072 184.469 9.77554 185.971 9.77539Z" fill="#DC2626"/>
<path d="M218.513 5.90332C218.845 5.90332 219.075 6.2371 218.956 6.54785L217.861 9.41699C217.736 9.74431 217.978 10.0957 218.328 10.0957H220.888C221.235 10.0957 221.477 10.4405 221.358 10.7666L221.082 11.5264C221.01 11.724 220.822 11.8555 220.611 11.8555H217.275C217.068 11.8555 216.881 11.9843 216.808 12.1787L212.58 23.3662C212.434 23.752 212.789 24.1285 213.17 23.9697C214.421 23.4477 215.779 22.564 217.067 21.1729C217.164 21.0686 217.299 21.0078 217.441 21.0078H217.75C218.163 21.0079 218.394 21.4778 218.129 21.7939C215.903 24.4467 213.381 25.9678 211.394 25.9678C209.922 25.9676 209.25 24.9115 209.954 23.0557L213.952 12.5332C214.076 12.2061 213.835 11.8556 213.485 11.8555H212.107C211.761 11.8552 211.519 11.5105 211.638 11.1846L211.914 10.4248C211.986 10.2273 212.174 10.0959 212.384 10.0957H214.506C214.713 10.0957 214.899 9.96786 214.973 9.77441L215.932 7.27051C215.977 7.15292 216.065 7.05668 216.178 7.00098L218.303 5.95312C218.368 5.9209 218.44 5.90332 218.513 5.90332Z" fill="#DC2626"/>
<path d="M50.9717 3.24805C51.2478 3.24805 51.4717 3.4719 51.4717 3.74805V4.0498C51.4717 4.31695 51.2612 4.53536 50.9951 4.55957C49.2122 4.72144 48.2082 5.33134 48.208 6.86328V22.0312C48.208 23.5635 49.2121 24.174 50.9951 24.3359C51.261 24.3601 51.4714 24.5778 51.4717 24.8447V25.1475C51.4717 25.4236 51.2478 25.6475 50.9717 25.6475H42.5C42.2239 25.6475 42 25.4236 42 25.1475V24.8447C42.0002 24.5779 42.2108 24.3603 42.4766 24.3359C44.2596 24.174 45.2637 23.5635 45.2637 22.0312V6.86328C45.2635 5.33134 44.2594 4.72144 42.4766 4.55957C42.2107 4.53521 42 4.31684 42 4.0498V3.74805C42 3.47191 42.2239 3.24805 42.5 3.24805H50.9717Z" fill="#DC2626"/>
<path d="M62.4775 9.77539C65.2295 9.77539 66.6377 11.9841 66.6377 14.2881V22.7998C66.6377 23.7663 67.4467 24.2275 68.6367 24.3857C68.8974 24.4206 69.1015 24.6364 69.1016 24.8994V25.1475C69.1016 25.4236 68.8777 25.6475 68.6016 25.6475H61.8584C61.5823 25.6475 61.3584 25.4236 61.3584 25.1475V24.8994C61.3584 24.6362 61.5633 24.4204 61.8242 24.3857C63.014 24.2274 63.8222 23.7662 63.8223 22.7998V15.6318C63.8223 13.1038 62.67 11.9834 60.75 11.9834C59.5705 11.9834 58.3339 12.6127 57.5264 13.4111C57.4368 13.4997 57.3896 13.6221 57.3896 13.748V22.7998C57.3897 23.7663 58.1986 24.2275 59.3887 24.3857C59.6494 24.4206 59.8544 24.6364 59.8545 24.8994V25.1475C59.8545 25.4234 59.6304 25.6472 59.3545 25.6475H52.6104C52.3342 25.6475 52.1104 25.4236 52.1104 25.1475V24.8994C52.1104 24.6362 52.3153 24.4204 52.5762 24.3857C53.766 24.2274 54.5742 23.7662 54.5742 22.7998V13.6797C54.5741 13.5014 54.4785 13.3364 54.3242 13.2471L52.3535 12.1064C52.2226 12.0306 52.1417 11.8906 52.1416 11.7393C52.1416 11.5598 52.2548 11.3991 52.4238 11.3389L56.7344 9.80469C56.7871 9.78592 56.8425 9.77544 56.8984 9.77539C57.1696 9.77539 57.3895 9.99548 57.3896 10.2666V11.2139C57.39 11.656 57.9278 11.8851 58.2656 11.5996C59.4298 10.6156 60.8337 9.77555 62.4775 9.77539Z" fill="#DC2626"/>
<path d="M103.335 9.77539C104.66 9.77539 105.336 10.9146 105.484 11.9941C105.508 12.166 105.425 12.3326 105.282 12.4316L103.432 13.7178C103.348 13.776 103.249 13.8076 103.146 13.8076H103.113C102.934 13.8076 102.769 13.7105 102.677 13.5566C102.233 12.8168 101.856 12.3995 101.191 12.3994C100.53 12.3994 99.671 12.9933 98.9326 13.7285C98.8411 13.8196 98.791 13.9442 98.791 14.0732V22.7998C98.791 23.809 99.535 24.2127 101.431 24.3936C101.692 24.4186 101.896 24.6352 101.896 24.8975V25.1475C101.896 25.4235 101.672 25.6473 101.396 25.6475H94.0117C93.7356 25.6475 93.5117 25.4236 93.5117 25.1475V24.8994C93.5118 24.6364 93.7159 24.4206 93.9766 24.3857C95.1666 24.2275 95.9755 23.7663 95.9756 22.7998V13.6797C95.9755 13.5014 95.8799 13.3364 95.7256 13.2471L93.7549 12.1064C93.6239 12.0306 93.543 11.8906 93.543 11.7393C93.543 11.5598 93.6561 11.3991 93.8252 11.3389L98.1357 9.80469C98.1885 9.78593 98.2438 9.77543 98.2998 9.77539C98.571 9.77539 98.7909 9.99548 98.791 10.2666V11.5801C98.791 12.0204 99.3162 12.2424 99.6348 11.9385C100.856 10.7731 102.032 9.77554 103.335 9.77539Z" fill="#DC2626"/>
<path d="M116.2 9.77539C118.952 9.77539 120.36 11.9841 120.36 14.2881V22.7998C120.36 23.7662 121.169 24.2274 122.358 24.3857C122.619 24.4204 122.824 24.6362 122.824 24.8994V25.1475C122.824 25.4236 122.6 25.6475 122.324 25.6475H115.58C115.304 25.6472 115.08 25.4235 115.08 25.1475V24.8994C115.08 24.6363 115.285 24.4206 115.546 24.3857C116.736 24.2275 117.545 23.7663 117.545 22.7998V15.6318C117.545 13.1039 116.393 11.9835 114.473 11.9834C113.293 11.9834 112.057 12.6127 111.249 13.4111C111.159 13.4997 111.112 13.6221 111.112 13.748V22.7998C111.112 23.7662 111.921 24.2274 113.11 24.3857C113.371 24.4204 113.576 24.6362 113.576 24.8994V25.1475C113.576 25.4236 113.352 25.6475 113.076 25.6475H106.332C106.056 25.6472 105.832 25.4234 105.832 25.1475V24.8994C105.832 24.6364 106.037 24.4206 106.298 24.3857C107.488 24.2275 108.297 23.7663 108.297 22.7998V13.6797C108.297 13.5014 108.201 13.3364 108.047 13.2471L106.076 12.1064C105.945 12.0306 105.864 11.8906 105.864 11.7393C105.864 11.5598 105.977 11.3991 106.146 11.3389L110.457 9.80469C110.51 9.78594 110.565 9.77542 110.621 9.77539C110.892 9.77539 111.112 9.99548 111.112 10.2666V11.2139C111.113 11.656 111.65 11.8851 111.988 11.5996C113.152 10.6156 114.556 9.7755 116.2 9.77539Z" fill="#DC2626"/>
<path d="M208.927 9.77539C210.216 9.77557 210.888 11.1974 211.041 12.2725C211.066 12.4495 210.979 12.6206 210.829 12.7188L208.955 13.9492C208.874 14.0027 208.778 14.0312 208.681 14.0312H208.625C208.421 14.0312 208.237 13.9068 208.159 13.7178C207.834 12.9285 207.553 12.3994 207.07 12.3994C206.434 12.3996 205.734 13.2872 203.521 16.3516C203.499 16.3832 203.479 16.4181 203.464 16.4541L199.806 25.3379C199.729 25.5252 199.546 25.6474 199.344 25.6475H197.522C197.246 25.6474 197.022 25.4236 197.022 25.1475V25.1084C197.022 25.042 197.036 24.9763 197.062 24.915L202.043 13.0615C202.181 12.732 201.939 12.3682 201.582 12.3682H199.203C199.059 12.3682 198.942 12.2511 198.942 12.1074C198.942 12.048 198.963 11.991 199.001 11.9453C199.816 10.9658 201.309 9.77539 202.559 9.77539C203.871 9.77544 204.318 10.9598 204.318 12.7197C204.318 13.1151 204.845 13.2674 205.067 12.9404C206.501 10.8308 207.667 9.77539 208.927 9.77539Z" fill="#DC2626"/>
</svg>
