<svg width="154" height="42" viewBox="0 0 154 42" fill="none" xmlns="http://www.w3.org/2000/svg">
<g clip-path="url(#clip0_3012_8686)">
<path d="M29.8393 25.2989C29.8393 20.5897 33.8863 17.4828 40.0277 17.4828H45.4391V16.6087C45.4391 14.5217 44.2687 13.3562 42.2221 13.3562C40.1754 13.3562 38.8588 14.2793 38.6633 15.9294H31.1067C31.5949 10.5898 35.7388 7.53055 42.4654 7.53055C49.192 7.53055 52.8493 10.734 52.8493 16.3664V32.2901H45.975L45.6824 30.3486C44.0732 31.8054 41.2951 32.7761 38.7111 32.7761C33.3489 32.7761 29.8379 29.815 29.8379 25.3004L29.8393 25.2989ZM45.4391 25.009V22.3392H40.5158C38.517 22.3392 37.3959 23.1167 37.3959 24.5244C37.3959 25.9321 38.517 26.7096 40.5158 26.7096C42.661 26.7096 44.4643 26.0778 45.4391 25.0105V25.009Z" fill="#0E0D59"/>
<path d="M55.502 0H62.9122V32.29H55.502V0Z" fill="#0E0D59"/>
<path d="M65.5781 0H72.9884V32.29H65.5781V0Z" fill="#0E0D59"/>
<path d="M76.1973 35.6882H81.122C82.9253 35.6882 83.706 34.8632 84.1449 33.4064L84.4867 32.2901H81.5623L74.4316 10.0503H82.1461L86.5348 25.0076L90.7281 10.0503H98.4034L90.434 35.4459C89.1174 39.5725 86.5826 42 81.4638 42H76.1987V35.6897L76.1973 35.6882Z" fill="#0E0D59"/>
<path d="M0 32.29V10.0503C0 10.0503 5.5403 9.94361 7.38127 12.9379C8.92097 15.4433 8.80219 19.7747 8.80219 19.7747V32.2886H0V32.29Z" fill="#0E0D59"/>
<path d="M0 9.28301V0H8.80219C8.80219 0 8.80219 6.03915 6.237 7.67334C3.80217 9.22532 0 9.28301 0 9.28301Z" fill="#0E0D59"/>
<path d="M9.68114 0C9.68114 0 9.72604 4.94152 12.129 7.01995C14.532 9.09839 18.4804 9.09839 18.4804 9.09839H26.8858C26.8858 9.09839 27.1639 6.71273 25.1911 3.7083C23.2183 0.70387 20.6531 0 18.5195 0H9.67969H9.68114Z" fill="#0E0D59"/>
<path d="M26.9379 10.0503H20.1505C20.1505 10.0503 14.7232 9.87149 12.1812 12.048C9.18143 14.6154 9.72026 20.7671 9.72026 20.7671L18.2835 32.2901H29.6479L20.5474 20.1166C20.5474 20.1166 23.4834 19.1963 25.2041 16.4227C27.203 13.2005 26.9379 10.0503 26.9379 10.0503Z" fill="#0E0D59"/>
<path d="M102.624 15.4722H104.904C106.441 15.4722 107.421 16.3044 107.421 17.64C107.421 18.9757 106.431 19.818 104.914 19.818H103.315V22.4575H102.624V15.4722ZM103.316 16.0376V19.2425H104.873C106.008 19.2425 106.7 18.6367 106.7 17.64C106.7 16.6434 106.009 16.0376 104.895 16.0376H103.316Z" fill="#0E0D59"/>
<path d="M108.044 19.7459C108.044 17.9069 108.972 16.9102 110.479 16.9102C111.985 16.9102 112.903 17.979 112.903 19.7459C112.903 21.5128 111.975 22.5714 110.479 22.5714C108.983 22.5714 108.044 21.5128 108.044 19.7459ZM112.223 19.7459C112.223 18.3179 111.582 17.4857 110.479 17.4857C109.375 17.4857 108.725 18.2876 108.725 19.7459C108.725 21.2041 109.365 21.9959 110.479 21.9959C111.593 21.9959 112.223 21.194 112.223 19.7459Z" fill="#0E0D59"/>
<path d="M117.27 18.1535L117.147 17.5982L117.012 18.1535L115.691 22.4575H114.876L113.174 17.0227H113.897L115.186 21.4608L115.32 21.9642L115.444 21.4608L116.815 17.0227H117.538L118.92 21.4608L119.033 21.9339L119.146 21.4608L120.435 17.0227H121.126L119.424 22.4575H118.588L117.267 18.1535H117.27Z" fill="#0E0D59"/>
<path d="M123.878 22.57C122.331 22.57 121.413 21.5113 121.413 19.7444C121.413 17.9775 122.342 16.9088 123.828 16.9088C125.314 16.9088 126.232 17.9458 126.232 19.6622V19.8468H122.095C122.126 21.2127 122.776 21.9945 123.88 21.9945C124.736 21.9945 125.354 21.5531 125.572 20.6892H126.262C125.963 21.9628 125.076 22.5686 123.88 22.5686L123.878 22.57ZM122.114 19.3348H125.54C125.437 18.1636 124.829 17.4857 123.828 17.4857C122.827 17.4857 122.218 18.1333 122.116 19.3348H122.114Z" fill="#0E0D59"/>
<path d="M127.247 17.0227H127.918V18.0194C128.278 17.2794 128.888 16.9102 129.599 16.9102C129.805 16.9102 129.992 16.9506 130.095 17.0227V17.6285C129.95 17.5766 129.754 17.5463 129.559 17.5463C128.445 17.5463 127.919 18.3684 127.919 19.3334V22.4561H127.249V17.0213L127.247 17.0227Z" fill="#0E0D59"/>
<path d="M132.831 22.57C131.285 22.57 130.366 21.5113 130.366 19.7444C130.366 17.9775 131.295 16.9088 132.781 16.9088C134.267 16.9088 135.185 17.9458 135.185 19.6622V19.8468H131.048C131.079 21.2127 131.729 21.9945 132.833 21.9945C133.689 21.9945 134.307 21.5531 134.525 20.6892H135.216C134.916 21.9628 134.029 22.5686 132.833 22.5686L132.831 22.57ZM131.067 19.3348H134.493C134.39 18.1636 133.782 17.4857 132.781 17.4857C131.78 17.4857 131.172 18.1333 131.069 19.3348H131.067Z" fill="#0E0D59"/>
<path d="M135.945 19.7459C135.945 17.9069 136.811 16.9102 138.205 16.9102C138.938 16.9102 139.504 17.2391 139.866 17.865V15.0611H140.537V22.4575H139.866V21.5849C139.506 22.2109 138.938 22.5714 138.205 22.5714C136.791 22.5714 135.945 21.5128 135.945 19.7459ZM139.865 19.7459C139.865 18.3179 139.277 17.4857 138.245 17.4857C137.214 17.4857 136.626 18.2876 136.626 19.7459C136.626 21.2041 137.224 21.9959 138.245 21.9959C139.267 21.9959 139.865 21.194 139.865 19.7459Z" fill="#0E0D59"/>
<path d="M144.146 22.4575V15.0611H144.817V17.8968C145.178 17.2592 145.746 16.9102 146.478 16.9102C147.902 16.9102 148.738 17.9689 148.738 19.7257C148.738 21.5748 147.872 22.5714 146.478 22.5714C145.746 22.5714 145.179 22.2426 144.817 21.6166V22.4589H144.146V22.4575ZM144.817 19.7358C144.817 21.1637 145.405 21.9959 146.436 21.9959C147.468 21.9959 148.056 21.1839 148.056 19.7257C148.056 18.2675 147.458 17.4857 146.436 17.4857C145.415 17.4857 144.817 18.2876 144.817 19.7358Z" fill="#0E0D59"/>
<path d="M149.285 24.748V24.2345H149.523C150.213 24.2345 150.379 24.122 150.936 22.8267L151.153 22.3133L148.926 17.0227H149.659L151.237 20.8651L151.505 21.6152L151.773 20.8651L153.31 17.0227H154.001L151.463 23.1859C150.917 24.5114 150.618 24.8085 149.709 24.8085C149.554 24.8085 149.379 24.7682 149.286 24.7465L149.285 24.748Z" fill="#0E0D59"/>
<path d="M107.545 32.267L107.432 31.3842C106.999 32.0924 106.266 32.4213 105.4 32.4213C103.471 32.4213 102.202 31.0453 102.202 28.7851C102.202 26.5249 103.471 25.1273 105.523 25.1273C106.978 25.1273 108.206 25.9177 108.526 27.438H107.072C106.855 26.6879 106.266 26.2769 105.483 26.2769C104.307 26.2769 103.626 27.2216 103.626 28.7837C103.626 30.3458 104.337 31.2703 105.535 31.2703C106.401 31.2703 107.104 30.777 107.196 29.6159H105.68V28.5688H108.517V32.267H107.548H107.545Z" fill="#0E0D59"/>
<path d="M112.007 32.4213C110.336 32.4213 109.314 31.3222 109.314 29.5251C109.314 27.7279 110.346 26.6072 111.955 26.6072C113.564 26.6072 114.575 27.6961 114.575 29.4731V29.7818H110.676C110.738 30.7886 111.202 31.3439 112.007 31.3439C112.626 31.3439 113.049 31.0568 113.224 30.4712H114.617C114.317 31.7448 113.328 32.4227 112.007 32.4227V32.4213ZM110.706 28.9596H113.192C113.069 28.1375 112.646 27.686 111.954 27.686C111.261 27.686 110.83 28.1274 110.705 28.9596H110.706Z" fill="#0E0D59"/>
<path d="M115.339 26.7615H116.66V27.5014C117.021 26.9057 117.599 26.6072 118.3 26.6072C119.404 26.6072 120.157 27.2649 120.157 28.6005V32.2684H118.836V28.8688C118.836 28.1188 118.516 27.6976 117.845 27.6976C117.112 27.6976 116.659 28.3351 116.659 29.0736V32.2684H115.338V26.7615H115.339Z" fill="#0E0D59"/>
<path d="M121.271 25.2816H122.662V31.1477H125.913V32.267H121.271V25.2816Z" fill="#0E0D59"/>
<path d="M126.596 28.5688C126.771 27.3457 127.669 26.6072 129.061 26.6072C130.598 26.6072 131.381 27.5115 131.381 28.7851V30.9213C131.381 31.5992 131.444 31.9799 131.546 32.267H130.175C130.102 32.0824 130.072 31.8155 130.062 31.5169C129.608 32.1545 128.928 32.4213 128.267 32.4213C127.184 32.4213 126.41 31.8876 126.41 30.8289C126.41 30.0789 126.833 29.5135 127.679 29.2366C128.412 28.9899 129.123 28.9279 130.052 28.9178V28.7837C130.052 28.0755 129.711 27.6947 128.978 27.6947C128.35 27.6947 128.008 28.0437 127.927 28.5673H126.596V28.5688ZM128.607 31.4463C129.423 31.4463 130.052 30.7886 130.052 29.9664V29.7299C128.174 29.7602 127.741 30.203 127.741 30.7568C127.741 31.178 128.072 31.4448 128.607 31.4448V31.4463Z" fill="#0E0D59"/>
<path d="M132.009 34.5589V33.5521H132.319C132.917 33.5521 133.196 33.4295 133.618 32.3809L133.753 32.042L131.576 26.7615H132.99L134.218 29.9563L134.446 30.7583L134.673 29.9563L135.849 26.7615H137.2L134.766 32.8122C134.198 34.2401 133.702 34.6815 132.691 34.6815C132.424 34.6815 132.145 34.6094 132.011 34.5589H132.009Z" fill="#0E0D59"/>
<path d="M139.849 32.4213C138.177 32.4213 137.156 31.3222 137.156 29.5251C137.156 27.7279 138.188 26.6072 139.797 26.6072C141.406 26.6072 142.417 27.6961 142.417 29.4731V29.7818H138.518C138.58 30.7886 139.044 31.3439 139.849 31.3439C140.467 31.3439 140.89 31.0568 141.066 30.4712H142.459C142.159 31.7448 141.17 32.4227 139.849 32.4227V32.4213ZM138.548 28.9596H141.034C140.911 28.1375 140.488 27.686 139.795 27.686C139.103 27.686 138.671 28.1274 138.547 28.9596H138.548Z" fill="#0E0D59"/>
<path d="M143.182 26.7615H144.503V27.5634C144.863 26.9057 145.421 26.6086 146.019 26.6086C146.247 26.6086 146.452 26.6706 146.555 26.7629V27.9038C146.38 27.8519 146.184 27.8317 145.947 27.8317C144.946 27.8317 144.503 28.4274 144.503 29.3419V32.2699H143.182V26.7629V26.7615Z" fill="#0E0D59"/>
</g>
<defs>
<clipPath id="clip0_3012_8686">
<rect width="154" height="42" fill="white"/>
</clipPath>
</defs>
</svg>
