<svg width="100%" viewBox="0 0 154 42" fill="none" xmlns="http://www.w3.org/2000/svg">
<path d="M86.5352 25.0078L90.7285 10.0508H98.4033L90.4336 35.4463C89.1169 39.5726 86.5825 42 81.4639 42H76.1992V35.6895L76.1973 35.6885H81.1221C82.9253 35.6885 83.7057 34.863 84.1445 33.4062L84.4863 32.29H81.5625L74.4316 10.0508H82.1465L86.5352 25.0078ZM134.218 29.9561L134.445 30.7578L134.673 29.9561L135.849 26.7617H137.2L134.766 32.8125C134.198 34.2402 133.702 34.6816 132.691 34.6816C132.423 34.6816 132.145 34.6091 132.011 34.5586H132.009V33.5518H132.319C132.917 33.5517 133.195 33.4293 133.618 32.3809L133.753 32.042L131.576 26.7617H132.99L134.218 29.9561ZM42.4658 7.53027C49.1921 7.5304 52.8495 10.7341 52.8496 16.3662V32.29H45.9746L45.6826 30.3486C44.0734 31.8054 41.295 32.7764 38.7109 32.7764C33.349 32.7763 29.8381 29.8151 29.8379 25.3008L29.8389 25.2988C29.8389 20.5897 33.8862 17.4825 40.0273 17.4824H45.4395V16.6084C45.4393 14.5215 44.2682 13.3564 42.2217 13.3564C40.1753 13.3566 38.8586 14.2797 38.6631 15.9297H31.1064C31.5946 10.5901 35.7392 7.53027 42.4658 7.53027ZM111.955 26.6074C113.564 26.6075 114.575 27.696 114.575 29.4727V29.7822H110.676C110.738 30.7886 111.202 31.3436 112.007 31.3438C112.625 31.3438 113.048 31.057 113.224 30.4717H114.617C114.317 31.745 113.328 32.4229 112.007 32.4229V32.4209C110.336 32.4208 109.315 31.3223 109.314 29.5254C109.314 27.7282 110.346 26.6074 111.955 26.6074ZM139.797 26.6074C141.406 26.6075 142.417 27.696 142.417 29.4727V29.7822H138.518C138.58 30.7886 139.044 31.3436 139.849 31.3438C140.467 31.3438 140.89 31.057 141.065 30.4717H142.459C142.159 31.745 141.169 32.4229 139.849 32.4229V32.4209C138.177 32.4208 137.156 31.3223 137.156 29.5254C137.156 27.7282 138.188 26.6074 139.797 26.6074ZM105.523 25.127C106.978 25.127 108.206 25.9175 108.526 27.4375H107.072C106.855 26.6877 106.266 26.2773 105.482 26.2773C104.307 26.2776 103.626 27.2216 103.626 28.7832C103.626 30.3453 104.337 31.2705 105.535 31.2705C106.401 31.2705 107.103 30.777 107.196 29.6162H105.68V28.5684H108.518V32.2666H107.546L107.433 31.3838C107 32.092 106.267 32.4209 105.4 32.4209C103.471 32.4209 102.202 31.0453 102.202 28.7852C102.202 26.525 103.471 25.127 105.523 25.127ZM129.061 26.6074C130.597 26.6074 131.381 27.5116 131.381 28.7852V30.9209C131.381 31.5984 131.443 31.9796 131.546 32.2666H130.175C130.102 32.082 130.072 31.815 130.062 31.5166C129.608 32.1541 128.927 32.4209 128.267 32.4209C127.183 32.4207 126.41 31.8875 126.41 30.8291C126.41 30.0791 126.833 29.5133 127.679 29.2363C128.412 28.9897 129.123 28.9281 130.052 28.918V28.7832C130.052 28.0754 129.711 27.6944 128.979 27.6943C128.35 27.6943 128.008 28.0438 127.927 28.5674H126.596C126.771 27.3452 127.669 26.6075 129.061 26.6074ZM20.1504 10.0508H26.9375C26.9408 10.0913 27.19 13.2216 25.2041 16.4229C23.4968 19.1748 20.5931 20.1019 20.5479 20.1162L29.6475 32.29H18.2832L9.7207 20.7666C9.71569 20.7086 9.19618 14.603 12.1816 12.0479C14.7177 9.8769 20.1243 10.0499 20.1504 10.0508ZM62.9121 32.29H55.502V0H62.9121V32.29ZM72.9883 32.29H65.5781V0H72.9883V32.29ZM0 10.0508C0 10.0508 5.53958 9.94368 7.38086 12.9375C8.91333 15.4311 8.80283 19.7341 8.80176 19.7744V32.2891H0V10.0508ZM146.02 26.6084C146.247 26.6085 146.452 26.6706 146.555 26.7627V27.9043C146.379 27.8524 146.184 27.832 145.946 27.832C144.946 27.8322 144.503 28.4275 144.503 29.3418V32.2695H143.182V26.7617H144.503V27.5635C144.864 26.9058 145.421 26.6084 146.02 26.6084ZM118.3 26.6074C119.404 26.6074 120.157 27.265 120.157 28.6006V32.2686H118.836V28.8691C118.836 28.1191 118.515 27.6973 117.845 27.6973C117.112 27.6975 116.659 28.335 116.659 29.0732V32.2686H115.338V26.7617H116.66V27.501C117.021 26.9055 117.599 26.6075 118.3 26.6074ZM122.662 31.1475H125.913V32.2666H121.271V25.2812H122.662V31.1475ZM130.052 29.7295C128.175 29.7598 127.741 30.203 127.741 30.7568C127.741 31.178 128.072 31.4453 128.607 31.4453V31.4463C129.423 31.4463 130.052 30.7888 130.052 29.9668V29.7295ZM111.953 27.6865C111.261 27.6867 110.83 28.1279 110.705 28.96H113.192C113.069 28.1378 112.645 27.6865 111.953 27.6865ZM139.795 27.6865C139.103 27.6867 138.671 28.1279 138.547 28.96H141.034C140.911 28.1378 140.487 27.6865 139.795 27.6865ZM40.5156 22.3389C38.5169 22.3389 37.3955 23.1167 37.3955 24.5244C37.3955 25.9321 38.5169 26.7099 40.5156 26.71C42.6608 26.71 44.4647 26.0781 45.4395 25.0107V22.3389H40.5156ZM151.237 20.8652L151.506 21.6152L151.773 20.8652L153.311 17.0225H154.001L151.464 23.1855C150.918 24.5111 150.617 24.8086 149.709 24.8086C149.554 24.8085 149.379 24.7677 149.286 24.7461L149.285 24.748V24.2344H149.522C150.213 24.2344 150.379 24.1222 150.937 22.8271L151.153 22.3135L148.926 17.0225H149.658L151.237 20.8652ZM110.479 16.9102C111.985 16.9102 112.903 17.9792 112.903 19.7461C112.903 21.5128 111.975 22.5713 110.479 22.5713C108.982 22.5712 108.044 21.5127 108.044 19.7461C108.044 17.9072 108.972 16.9103 110.479 16.9102ZM140.537 22.457H139.866V21.585C139.506 22.2108 138.938 22.5712 138.205 22.5713C136.791 22.5713 135.945 21.5128 135.945 19.7461C135.945 17.9071 136.812 16.9102 138.205 16.9102C138.938 16.9102 139.504 17.2393 139.866 17.8652V15.0615H140.537V22.457ZM144.817 17.8965C145.178 17.2592 145.746 16.9102 146.479 16.9102C147.902 16.9102 148.738 17.9689 148.738 19.7256C148.738 21.5747 147.872 22.5713 146.479 22.5713C145.746 22.5713 145.179 22.2422 144.817 21.6162V22.459H144.146V15.0615H144.817V17.8965ZM123.828 16.9092C125.314 16.9094 126.232 17.9459 126.232 19.6621V19.8467H122.096C122.126 21.2126 122.776 21.9941 123.88 21.9941C124.736 21.9941 125.354 21.5532 125.571 20.6895H126.263C125.963 21.9629 125.076 22.5683 123.88 22.5684L123.878 22.5703C122.331 22.5701 121.413 21.5109 121.413 19.7441C121.413 17.9774 122.342 16.9092 123.828 16.9092ZM132.781 16.9092C134.267 16.9094 135.186 17.9459 135.186 19.6621V19.8467H131.049C131.079 21.2126 131.729 21.9941 132.833 21.9941C133.689 21.9941 134.307 21.5532 134.524 20.6895H135.216C134.916 21.9629 134.029 22.5683 132.833 22.5684L132.831 22.5703C131.284 22.5701 130.366 21.5109 130.366 19.7441C130.366 17.9774 131.295 16.9092 132.781 16.9092ZM104.904 15.4727C106.441 15.4728 107.421 16.3044 107.421 17.6396C107.421 18.9753 106.431 19.8183 104.914 19.8184H103.314V22.457H102.624V15.4727H104.904ZM115.186 21.4609L115.32 21.9639L115.443 21.4609L116.815 17.0225H117.538L118.92 21.4609L119.033 21.9336L119.146 21.4609L120.435 17.0225H121.126L119.424 22.457H118.588L117.268 18.1533H117.271L117.146 17.5986L117.012 18.1533L115.691 22.457H114.876L113.174 17.0225H113.896L115.186 21.4609ZM129.6 16.9102C129.805 16.9102 129.992 16.9504 130.095 17.0225V17.6289C129.95 17.577 129.754 17.5459 129.559 17.5459C128.445 17.546 127.919 18.3683 127.919 19.333V22.4561H127.248V17.0225H127.918V18.0195C128.279 17.2796 128.888 16.9102 129.6 16.9102ZM110.479 17.4854C109.375 17.4855 108.725 18.288 108.725 19.7461C108.725 21.2041 109.365 21.996 110.479 21.9961C111.592 21.9961 112.223 21.1941 112.223 19.7461C112.223 18.3182 111.582 17.4854 110.479 17.4854ZM138.245 17.4854C137.214 17.4855 136.626 18.288 136.626 19.7461C136.626 21.204 137.224 21.9959 138.245 21.9961C139.266 21.9961 139.865 21.1941 139.865 19.7461C139.865 18.3182 139.276 17.4854 138.245 17.4854ZM146.437 17.4854C145.415 17.4854 144.817 18.2875 144.817 19.7354C144.817 21.1633 145.405 21.9961 146.437 21.9961C147.468 21.9961 148.056 21.1838 148.056 19.7256C148.056 18.2674 147.458 17.4854 146.437 17.4854ZM123.828 17.4854C122.827 17.4854 122.218 18.1335 122.115 19.335H125.54C125.437 18.164 124.829 17.4856 123.828 17.4854ZM132.781 17.4854C131.78 17.4854 131.171 18.1335 131.068 19.335H134.493C134.39 18.164 133.782 17.4856 132.781 17.4854ZM103.316 19.2422H104.873C106.007 19.2422 106.7 18.6363 106.7 17.6396C106.7 16.6433 106.009 16.0372 104.896 16.0371H103.316V19.2422ZM8.80176 0C8.80176 6.16441e-05 8.80249 6.03965 6.2373 7.67383C3.80247 9.2258 0 9.2832 0 9.2832V0H8.80176ZM18.5195 0C20.6531 0 23.2186 0.703621 25.1914 3.70801C27.1642 6.71244 26.8857 9.09863 26.8857 9.09863H18.4805C18.4805 9.09863 14.5319 9.09797 12.1289 7.01953C9.7262 4.94096 9.68066 0 9.68066 0H18.5195Z" fill="currentColor"/>
</svg>